<?xml version="1.0" encoding="utf-8"?>
<!-- Generator: Adobe Illustrator 21.1.0, SVG Export Plug-In . SVG Version: 6.00 Build 0)  -->
<!DOCTYPE svg PUBLIC "-//W3C//DTD SVG 1.1//EN" "http://www.w3.org/Graphics/SVG/1.1/DTD/svg11.dtd">
<svg version="1.1" id="Layer_1" xmlns="http://www.w3.org/2000/svg" xmlns:xlink="http://www.w3.org/1999/xlink" x="0px" y="0px"
	 width="30.7px" height="28.7px" viewBox="0 0 30.7 28.7" style="enable-background:new 0 0 30.7 28.7;" xml:space="preserve">
<style type="text/css">
	.st0{fill:#40BA94;}
	.st1{fill:#EFEFEF;}
	.st2{opacity:0.55;fill:#444243;}
	.st3{opacity:0.55;fill:#15252E;}
	.st4{opacity:0.39;fill:#15252E;}
	.st5{opacity:0.45;fill:#15252E;}
	.st6{fill:#050505;}
	.st7{fill:#E2E0E2;}
	.st8{fill:#F6F6F6;}
	.st9{fill:#FFFFFF;stroke:#DDDDDD;stroke-miterlimit:10;}
	.st10{fill:#535253;}
	.st11{fill:none;stroke:#DDDDDD;stroke-miterlimit:10;}
	.st12{fill:#99A2A3;}
	.st13{fill:#BCC5C5;}
	.st14{fill:#FFFFFF;}
	.st15{fill:#DDDDDD;}
	.st16{fill:#535253;stroke:#535253;stroke-width:0.5;stroke-miterlimit:10;}
	.st17{fill:#3594BA;}
	.st18{opacity:0.8;fill:#535253;}
	.st19{fill:none;stroke:#D3D3D3;stroke-miterlimit:10;}
	.st20{fill:none;stroke:#BCC5C5;stroke-miterlimit:10;}
	.st21{fill:none;stroke:#D3D3D3;stroke-width:2;stroke-linecap:round;stroke-linejoin:round;stroke-miterlimit:10;}
	.st22{fill:none;stroke:#9E9E9E;stroke-width:2;stroke-linecap:round;stroke-linejoin:round;stroke-miterlimit:10;}
	.st23{opacity:0.75;fill:#FFFFFF;}
	.st24{fill:none;stroke:#40BA94;stroke-width:1.5;stroke-linecap:round;stroke-linejoin:round;stroke-miterlimit:10;}
	.st25{fill:none;stroke:#99A2A3;stroke-width:1.5;stroke-linecap:round;stroke-linejoin:round;stroke-miterlimit:10;}
	.st26{fill-rule:evenodd;clip-rule:evenodd;fill:#FFFFFF;}
	.st27{fill:#4B6295;}
	.st28{fill:#699D7C;}
	.st29{fill:none;stroke:#535253;stroke-linecap:round;stroke-linejoin:round;stroke-miterlimit:10;}
	.st30{fill:#FF7576;}
	.st31{fill:#BCBEC0;}
	.st32{fill:none;stroke:#535253;stroke-width:2;stroke-miterlimit:10;}
	.st33{fill:none;stroke:#FFFFFF;stroke-width:2;stroke-miterlimit:10;}
	.st34{fill-rule:evenodd;clip-rule:evenodd;fill:#535253;}
</style>
<g>
	<g>
		<path class="st10" d="M13.9,20c-0.1,0-0.2,0-0.3-0.1l-5.4-4.8C8.1,15,8,14.9,8,14.7s0.1-0.3,0.2-0.4l5.4-4.8
			c0.2-0.2,0.5-0.2,0.7,0c0.2,0.2,0.2,0.5,0,0.7l-5,4.4l5,4.4c0.2,0.2,0.2,0.5,0,0.7C14.2,19.9,14,20,13.9,20z"/>
		<path class="st10" d="M22.2,15.2H8.5C8.2,15.2,8,15,8,14.7s0.2-0.5,0.5-0.5h13.6c0.3,0,0.5,0.2,0.5,0.5S22.4,15.2,22.2,15.2z"/>
	</g>
</g>
</svg>
