<?xml version="1.0" encoding="utf-8"?>
<!-- Generator: Adobe Illustrator 19.0.1, SVG Export Plug-In . SVG Version: 6.00 Build 0)  -->
<svg version="1.1" id="Слой_1" xmlns="http://www.w3.org/2000/svg" xmlns:xlink="http://www.w3.org/1999/xlink" x="0px" y="0px"
	 viewBox="0 0 66 50" style="enable-background:new 0 0 66 50;" xml:space="preserve">
<style type="text/css">
	.st0{fill:#545354;}
	.st1{fill:#48B593;}
</style>
<g>
	<path class="st0" d="M66.2,10.5l-3.3-4.1c-0.3-0.4-0.7-0.5-1.2-0.4l-3.1,0.7c-0.4,0.1-0.8,0.4-0.9,0.9l-1,4.2
		c0,0.2-0.1,0.3-0.3,0.4l-5.5,3.7c-0.5,0.4-0.7,1.1-0.3,1.6c0.4,0.5,1.1,0.7,1.6,0.3l6.1-4.2c0.2-0.2,0.4-0.4,0.5-0.7l0.9-3.8
		c0.1-0.2,0.2-0.4,0.4-0.4l1-0.2c0.2,0,0.4,0,0.6,0.2l1.7,2.1c0.2,0.2,0.2,0.5,0,0.7l-2.7,3c-0.2,0.3-0.3,0.6-0.3,0.9l0.2,1.5
		c0,0.2,0,0.4-0.2,0.5l-4.2,4.7c-0.2,0.3-0.3,0.6-0.3,1l0.7,4.9c0,0.3,0,0.5-0.2,0.8l-4.3,5.8c-0.2,0.3-0.3,0.6-0.2,0.9l0.6,3.7
		c0,0.2,0.1,0.4,0.2,0.5l2.1,2.8c0.1,0.1,0.1,0.2,0.1,0.3l0.1,1.4c0,0.3-0.2,0.5-0.5,0.5l-0.9,0c-0.1,0-0.2,0-0.3-0.1L50.7,42
		c-0.1-0.1-0.2-0.3-0.2-0.5l-0.1-1.7c0-0.6-0.5-1-1.1-1.1l-7.5-0.7c-0.4,0-0.8,0.1-1.1,0.5c-0.2,0.2-0.2,0.6-0.2,0.9l0,0.5
		c0,0.2-0.2,0.4-0.4,0.3L36,39.5c-0.3-0.1-0.6,0-0.9,0.1l-3.8,2.3c-0.3,0.2-0.5,0.4-0.5,0.7l-0.4,1.6c-0.1,0.3-0.4,0.3-0.6,0.1
		l-3.4-4.8c-0.3-0.4-0.9-0.6-1.4-0.4l-1.5,0.6c-0.3,0.1-0.5,0-0.7-0.2l-2.5-3.1c-0.2-0.3-0.6-0.4-0.9-0.4h-5.3c-0.1,0-0.2,0-0.3-0.1
		l-3.7-1.7c-0.2-0.1-0.3-0.2-0.3-0.4L4.7,20.2c-0.1-0.2-0.1-0.4,0-0.6l3.5-9.6c0.1-0.2,0.3-0.4,0.5-0.4l4.4,0c0.6,0,1.2-0.5,1.2-1.1
		c0-0.7-0.5-1.2-1.2-1.2H7.5C7,7.2,6.6,7.5,6.4,8L2.2,19.4c-0.1,0.3-0.1,0.6,0,0.8l5.7,15.2C8,35.7,8.2,36,8.5,36.1l4.8,2.2
		c0.2,0.1,0.3,0.1,0.5,0.1h4.9c0.2,0,0.3,0.1,0.5,0.2l2.8,3.4c0.3,0.4,0.8,0.5,1.3,0.4l1.5-0.6c0.2-0.1,0.5,0,0.6,0.2l4.5,6.4
		c0.2,0.3,0.6,0.5,1,0.5c0.2,0,0.4,0,0.6-0.2c0.3-0.2,0.5-0.5,0.6-0.8l0.9-3.9c0.1-0.3,0.3-0.5,0.5-0.7l2.3-1.4
		c0.2-0.1,0.4-0.2,0.6-0.1l5.3,1.1c0.5,0.1,1-0.1,1.3-0.6c0.1-0.2,0.2-0.5,0.1-0.7L43,41.1c0-0.3,0.2-0.5,0.4-0.4l4.2,0.4
		c0.3,0,0.5,0.2,0.5,0.5l0.1,1c0,0.3,0.2,0.6,0.4,0.8l3.8,3.5c0.2,0.2,0.5,0.3,0.8,0.3l3.4,0.1c0.4,0,0.7-0.1,0.9-0.4
		c0.2-0.2,0.3-0.6,0.3-0.9l-0.3-3.7c0-0.2-0.1-0.4-0.2-0.6L55,38.8c-0.1-0.1-0.2-0.3-0.2-0.4L54.4,36c0-0.2,0-0.5,0.2-0.7l4.3-5.9
		c0.2-0.3,0.3-0.6,0.2-0.9l-0.7-4.9c0-0.2,0-0.4,0.2-0.6l4.2-4.7c0.2-0.3,0.3-0.6,0.3-0.9l-0.2-1.4c0-0.2,0-0.5,0.2-0.7l3-3.4
		C66.5,11.5,66.5,10.9,66.2,10.5z"/>
	<path class="st1" d="M31.9,31.7l0.4,0.3c0.2,0.1,0.4,0.2,0.7,0.2c0.2,0,0.5-0.1,0.7-0.2l0.4-0.3c3.7-2.6,15.7-11.7,15.7-21.3
		c0-4.7-3.8-8.6-8.6-8.6c-3.8,0-6.5,2.8-8.2,5.2c-1.7-2.4-4.4-5.2-8.2-5.2c-4.7,0-8.6,3.8-8.6,8.6C16.2,20,28.2,29.1,31.9,31.7z
		 M24.7,4.1c3.7,0,6.2,3.9,7.2,5.6c0.2,0.4,0.6,0.6,1,0.6c0.4,0,0.8-0.2,1-0.6c0.9-1.7,3.5-5.6,7.2-5.6c3.4,0,6.2,2.8,6.2,6.2
		c0,2.1-1,9.8-14.4,19.2c-13.4-9.4-14.4-17.1-14.4-19.2C18.5,6.9,21.3,4.1,24.7,4.1z"/>
</g>
</svg>
