<?xml version="1.0" encoding="utf-8"?>
<!-- Generator: Adobe Illustrator 19.1.0, SVG Export Plug-In . SVG Version: 6.00 Build 0)  -->
<!DOCTYPE svg PUBLIC "-//W3C//DTD SVG 1.1 Basic//EN" "http://www.w3.org/Graphics/SVG/1.1/DTD/svg11-basic.dtd">
<svg version="1.1" baseProfile="basic" id="Layer_1"
	 xmlns="http://www.w3.org/2000/svg" xmlns:xlink="http://www.w3.org/1999/xlink" x="0px" y="0px" width="310px" height="50px"
	 viewBox="0 0 310 50" xml:space="preserve">
<g>
	<path fill="#535253" d="M95.9,34c-2.2,0-3.8-0.7-4.9-2.2c-1.1-1.5-1.6-3.4-1.6-5.9s0.5-4.4,1.6-5.9c1.1-1.5,2.7-2.2,4.9-2.2
		c2.2,0,3.8,0.7,4.9,2.2c1.1,1.5,1.6,3.4,1.6,5.9s-0.5,4.4-1.6,5.9C99.6,33.2,98,34,95.9,34z M93.6,22.1c-0.5,1-0.7,2.2-0.7,3.8
		c0,1.6,0.2,2.8,0.7,3.8c0.5,1,1.3,1.4,2.3,1.4s1.8-0.5,2.3-1.4c0.5-1,0.7-2.2,0.7-3.8c0-1.6-0.2-2.8-0.7-3.8
		c-0.5-1-1.3-1.4-2.3-1.4S94,21.1,93.6,22.1z"/>
	<path fill="#535253" d="M115.1,21.3c-0.3,0.3-0.5,0.6-0.5,1.1c0,0.5,0.2,0.8,0.6,1.1c0.4,0.3,1.4,0.6,2.8,1
		c1.5,0.4,2.6,0.9,3.5,1.6c0.8,0.7,1.2,1.8,1.2,3.2c0,1.4-0.5,2.5-1.6,3.4c-1.1,0.9-2.4,1.3-4.2,1.3c-2.5,0-4.7-0.9-6.7-2.8l2.1-2.6
		c1.7,1.5,3.2,2.2,4.7,2.2c0.6,0,1.1-0.1,1.5-0.4c0.4-0.3,0.5-0.6,0.5-1.1c0-0.5-0.2-0.8-0.6-1.1c-0.4-0.3-1.2-0.6-2.3-0.8
		c-1.8-0.4-3.2-1-4-1.7c-0.8-0.7-1.3-1.8-1.3-3.3c0-1.5,0.5-2.6,1.6-3.4c1.1-0.8,2.4-1.2,4-1.2c1,0,2.1,0.2,3.1,0.5
		c1,0.4,2,0.9,2.7,1.5l-1.8,2.6c-1.4-1-2.8-1.5-4.2-1.5C115.9,20.8,115.4,21,115.1,21.3z"/>
	<path fill="#535253" d="M132.3,21.2v12.6h-3.5V21.2h-4.4v-3h12.4v3H132.3z"/>
	<path fill="#535253" d="M148.9,33.8l-1.5-3.4h-6.6l-1.5,3.4h-3.7l6.8-15.7h3.4l6.8,15.7H148.9z M144.2,22.8l-2,4.5h3.9L144.2,22.8z
		"/>
	<path fill="#535253" d="M159.6,21.2v12.6h-3.5V21.2h-4.4v-3H164v3H159.6z"/>
	<path fill="#535253" d="M177.5,18.1v3.1h-7.8v3.2h7v3h-7v3.2h8v3.1h-11.5V18.1H177.5z"/>
	<path fill="#535253" d="M184.5,21.3c-0.3,0.3-0.5,0.6-0.5,1.1c0,0.5,0.2,0.8,0.6,1.1c0.4,0.3,1.4,0.6,2.8,1
		c1.5,0.4,2.6,0.9,3.5,1.6c0.8,0.7,1.2,1.8,1.2,3.2c0,1.4-0.5,2.5-1.6,3.4c-1.1,0.9-2.4,1.3-4.2,1.3c-2.5,0-4.7-0.9-6.7-2.8l2.1-2.6
		c1.7,1.5,3.2,2.2,4.7,2.2c0.6,0,1.1-0.1,1.5-0.4c0.4-0.3,0.5-0.6,0.5-1.1c0-0.5-0.2-0.8-0.6-1.1c-0.4-0.3-1.2-0.6-2.3-0.8
		c-1.8-0.4-3.2-1-4-1.7c-0.8-0.7-1.3-1.8-1.3-3.3c0-1.5,0.5-2.6,1.6-3.4c1.1-0.8,2.4-1.2,4-1.2c1,0,2.1,0.2,3.1,0.5
		c1,0.4,2,0.9,2.7,1.5l-1.8,2.6c-1.4-1-2.8-1.5-4.2-1.5C185.3,20.8,184.8,21,184.5,21.3z"/>
	<path fill="#535253" d="M212.2,33.8l-1.5-3.4h-6.6l-1.5,3.4H199l6.8-15.7h3.4l6.8,15.7H212.2z M207.5,22.8l-2,4.5h3.9L207.5,22.8z"
		/>
	<path fill="#535253" d="M228.6,19.5c1.1,0.9,1.6,2.4,1.6,4.3c0,1.9-0.6,3.3-1.7,4.2c-1.1,0.9-2.8,1.3-5.2,1.3h-2.1v4.4h-3.5V18.1
		h5.5C225.7,18.1,227.5,18.6,228.6,19.5z M226,25.7c0.4-0.5,0.6-1.2,0.6-2.1s-0.3-1.5-0.8-1.9c-0.5-0.4-1.4-0.6-2.5-0.6h-2v5.3h2.4
		C224.8,26.4,225.6,26.2,226,25.7z"/>
	<path fill="#535253" d="M243.6,19.5c1.1,0.9,1.6,2.4,1.6,4.3c0,1.9-0.6,3.3-1.7,4.2c-1.1,0.9-2.8,1.3-5.2,1.3h-2.1v4.4h-3.5V18.1
		h5.5C240.8,18.1,242.5,18.6,243.6,19.5z M241,25.7c0.4-0.5,0.6-1.2,0.6-2.1s-0.3-1.5-0.8-1.9c-0.5-0.4-1.4-0.6-2.5-0.6h-2v5.3h2.4
		C239.8,26.4,240.6,26.2,241,25.7z"/>
	<path fill="#535253" d="M258.1,33.8l-1.5-3.4h-6.6l-1.5,3.4h-3.7l6.8-15.7h3.4l6.8,15.7H258.1z M253.4,22.8l-2,4.5h3.9L253.4,22.8z
		"/>
	<path fill="#535253" d="M276.4,23.3c0,2.5-1,4.1-3,4.9l4,5.6h-4.3l-3.5-5h-2.4v5h-3.5V18.1h5.9c2.4,0,4.2,0.4,5.2,1.2
		S276.4,21.5,276.4,23.3z M272.2,25.2c0.4-0.4,0.6-1,0.6-1.8c0-0.8-0.2-1.4-0.7-1.7c-0.4-0.3-1.2-0.5-2.4-0.5h-2.6v4.6h2.6
		C270.9,25.8,271.8,25.6,272.2,25.2z"/>
	<path fill="#535253" d="M291.1,18.1v3.1h-7.8v3.2h7v3h-7v3.2h8v3.1h-11.5V18.1H291.1z"/>
	<path fill="#535253" d="M294.6,33.8V18.1h3.5v12.5h6.7v3.1H294.6z"/>
	<path fill="#535253" d="M86,24.9c-1.1-0.9-2.4-1.4-3.9-1.4c-0.6,0-2.1,0.1-2.6,0.2v-2.6h7.4v-3H76.3v7.6l1.5,1.6
		c1-0.6,2.9-0.9,3.7-0.9c0.8,0,1.4,0.2,1.9,0.6c0.5,0.4,0.8,0.9,0.8,1.6c0,0.2,0,0.3,0,0.5c0,0,0,0,0,0c0,0,0,0,0,0
		c0,0.1-0.1,0.3-0.1,0.4c0,0,0,0,0,0c-0.1,0.1-0.1,0.2-0.2,0.3c0,0,0,0.1-0.1,0.1c-0.1,0.1-0.2,0.2-0.3,0.3l0,0
		c-0.1,0.1-0.2,0.1-0.3,0.2c-0.4,0.2-1,0.4-1.5,0.4c-1.2,0-2.4-0.5-3.8-1.5l-1.9,2.7c1.7,1.3,3.6,1.9,5.7,1.9c0.1,0,0.1,0,0.2,0v0
		c0.7,0,1.4-0.1,2-0.3c0,0,0.1,0,0.1,0c0.2-0.1,0.4-0.2,0.7-0.3c0.1-0.1,0.3-0.1,0.4-0.2c0.2-0.1,0.3-0.2,0.5-0.3
		c0.1-0.1,0.2-0.1,0.3-0.2c0,0,0,0,0.1-0.1c0.1,0,0.1-0.1,0.2-0.1c1.1-1,1.7-2.3,1.7-3.8C87.6,27.1,87.1,25.8,86,24.9z"/>
</g>
<g>
	<path fill="#535253" d="M63.4,11.2l-3.1-3.8C60,7.1,59.6,6.9,59.2,7l-2.9,0.6c-0.4,0.1-0.7,0.4-0.8,0.8l-0.9,3.9
		c0,0.2-0.1,0.3-0.3,0.4l-5.1,3.5c-0.5,0.3-0.6,1-0.3,1.5c0.3,0.5,1,0.6,1.5,0.3l5.7-3.9c0.2-0.2,0.4-0.4,0.5-0.7l0.9-3.6
		c0-0.2,0.2-0.4,0.4-0.4l0.9-0.2c0.2,0,0.4,0,0.5,0.2l1.6,2c0.2,0.2,0.2,0.5,0,0.7L58.3,15c-0.2,0.2-0.3,0.6-0.3,0.9l0.2,1.4
		c0,0.2,0,0.4-0.2,0.5l-3.9,4.4c-0.2,0.2-0.3,0.6-0.3,0.9l0.7,4.5c0,0.3,0,0.5-0.2,0.7l-4,5.4c-0.2,0.2-0.2,0.5-0.2,0.8l0.6,3.5
		c0,0.2,0.1,0.3,0.2,0.5l2,2.6c0.1,0.1,0.1,0.2,0.1,0.3l0.1,1.3c0,0.3-0.2,0.5-0.4,0.5l-0.9,0c-0.1,0-0.2,0-0.3-0.1L49,40.6
		c-0.1-0.1-0.2-0.3-0.2-0.4l-0.1-1.6c0-0.5-0.5-1-1-1l-7-0.6c-0.4,0-0.7,0.1-1,0.4c-0.2,0.2-0.2,0.5-0.2,0.8l0,0.5
		c0,0.2-0.2,0.4-0.4,0.3l-3.8-0.8c-0.3-0.1-0.6,0-0.8,0.1l-3.5,2.1c-0.2,0.2-0.4,0.4-0.5,0.7l-0.4,1.5c-0.1,0.3-0.4,0.3-0.6,0.1
		l-3.1-4.4c-0.3-0.4-0.8-0.6-1.3-0.4l-1.4,0.5c-0.2,0.1-0.5,0-0.7-0.2l-2.3-2.9C20.6,35.1,20.3,35,20,35h-4.9c-0.1,0-0.2,0-0.2-0.1
		l-3.5-1.6c-0.1-0.1-0.3-0.2-0.3-0.3L6.2,20.2c-0.1-0.2-0.1-0.4,0-0.6l3.3-8.9c0.1-0.2,0.3-0.3,0.5-0.3l4.1,0c0.6,0,1.1-0.4,1.2-1
		c0-0.6-0.5-1.2-1.1-1.2H8.9c-0.5,0-0.9,0.3-1,0.7L3.9,19.6c-0.1,0.2-0.1,0.5,0,0.8l5.3,14.1c0.1,0.3,0.3,0.5,0.6,0.6l4.4,2
		c0.1,0.1,0.3,0.1,0.5,0.1h4.5c0.2,0,0.3,0.1,0.4,0.2l2.6,3.2c0.3,0.4,0.8,0.5,1.2,0.3l1.4-0.5c0.2-0.1,0.4,0,0.6,0.2l4.2,6
		c0.2,0.3,0.5,0.5,0.9,0.5c0.2,0,0.4,0,0.5-0.1c0.3-0.2,0.5-0.4,0.5-0.7l0.9-3.6c0.1-0.3,0.2-0.5,0.5-0.6l2.1-1.3
		c0.2-0.1,0.4-0.1,0.6-0.1l4.9,1c0.5,0.1,0.9-0.1,1.2-0.5c0.1-0.2,0.2-0.5,0.1-0.7l-0.1-0.6c0-0.2,0.2-0.4,0.4-0.4l3.9,0.3
		c0.2,0,0.4,0.2,0.4,0.5l0.1,0.9c0,0.3,0.1,0.5,0.3,0.7l3.5,3.3c0.2,0.2,0.5,0.3,0.7,0.3l3.1,0.1c0.3,0,0.6-0.1,0.9-0.4
		c0.2-0.2,0.3-0.5,0.3-0.8l-0.3-3.5c0-0.2-0.1-0.4-0.2-0.6l-2-2.6c-0.1-0.1-0.2-0.3-0.2-0.4l-0.4-2.2c0-0.2,0-0.4,0.1-0.6l4-5.5
		c0.2-0.2,0.2-0.5,0.2-0.8l-0.7-4.5c0-0.2,0-0.4,0.2-0.5l3.9-4.4c0.2-0.2,0.3-0.6,0.3-0.9l-0.2-1.3c0-0.2,0-0.4,0.2-0.6l2.8-3.2
		C63.7,12.2,63.7,11.6,63.4,11.2z"/>
	<path fill="#40BA94" d="M31.5,31l0.4,0.3c0.2,0.1,0.4,0.2,0.6,0.2c0.2,0,0.4-0.1,0.6-0.2l0.4-0.3c3.4-2.4,14.6-10.9,14.6-19.8
		c0-4.4-3.6-8-8-8c-3.6,0-6.1,2.6-7.6,4.8c-1.5-2.2-4.1-4.8-7.6-4.8c-4.4,0-8,3.6-8,8C16.9,20.1,28.1,28.6,31.5,31z M24.9,5.3
		c3.4,0,5.8,3.7,6.7,5.2c0.2,0.3,0.6,0.6,1,0.6s0.8-0.2,1-0.6c0.9-1.6,3.2-5.2,6.7-5.2c3.2,0,5.8,2.6,5.8,5.8c0,2-1,9.1-13.4,17.9
		c-12.4-8.7-13.4-15.9-13.4-17.9C19.1,7.9,21.7,5.3,24.9,5.3z"/>
</g>
</svg>
