<?xml version="1.0" encoding="utf-8"?>
<!-- Generator: Adobe Illustrator 19.0.1, SVG Export Plug-In . SVG Version: 6.00 Build 0)  -->
<svg version="1.1" xmlns="http://www.w3.org/2000/svg" xmlns:xlink="http://www.w3.org/1999/xlink" x="0px" y="0px"
	 viewBox="0 0 80 40" style="enable-background:new 0 0 80 40;" xml:space="preserve">
<style type="text/css">
	.st0{fill:#40ba94;}
	.st1{fill:#40ba94;}
</style>
<g id="Layer_1">
	<g>
		<path class="st0" d="M19.5,4.2c-0.7,0.3-1.5,0.5-2.2,0.6c0.8-0.5,1.4-1.3,1.7-2.2c-0.8,0.4-1.6,0.8-2.5,0.9
			c-0.7-0.8-1.7-1.2-2.9-1.2c-2.2,0-3.9,1.8-3.9,3.9c0,0.3,0,0.6,0.1,0.9c-3.2-0.1-6.1-1.6-8-4c-0.4,0.6-0.5,1.3-0.5,2
			C1.3,6.5,2,7.7,3,8.4C2.4,8.3,1.7,8.1,1.2,7.9l0,0c0,1.9,1.4,3.5,3.1,3.8c-0.3,0.1-0.7,0.1-1,0.1s-0.5,0-0.7-0.1
			c0.5,1.6,1.9,2.7,3.7,2.7c-1.3,1.1-3,1.7-4.9,1.7c-0.3,0-0.6,0-0.9-0.1c1.7,1.1,3.8,1.8,6,1.8c7.2,0,11.1-6,11.1-11.1
			c0-0.2,0-0.3,0-0.5C18.4,5.7,19,5,19.5,4.2"/>
	</g>
	<g>
		<path class="st0" d="M25.5,6.9h1.9V5c0-0.8,0-2.1,0.6-2.9s1.5-1.4,3-1.4c2.4,0,3.5,0.3,3.5,0.3L34,3.9c0,0-0.8-0.2-1.6-0.2
			c-0.8,0-1.4,0.3-1.4,1v2.2h3.1l-0.2,2.8H31v9.7h-3.6V9.6h-1.9V6.9z"/>
	</g>
	<g>
		<path class="st0" d="M56.7,1H43.2c-1.2,0-2.1,0.9-2.1,2.1v13.5c0,1.2,0.9,2.1,2.1,2.1h13.5c1.2,0,2.1-0.9,2.1-2.1V3.1
			C58.8,1.9,57.8,1,56.7,1z M54.3,3.2H56c0.3,0,0.6,0.2,0.6,0.6v1.7c0,0.3-0.2,0.6-0.6,0.6h-1.7c-0.3,0-0.6-0.2-0.6-0.6V3.7
			C53.8,3.4,54,3.2,54.3,3.2z M50,6.4c1.9,0,3.4,1.5,3.4,3.4s-1.5,3.4-3.4,3.4c-1.9,0-3.4-1.5-3.4-3.4S48,6.4,50,6.4z M56.5,17H43.3
			c-0.3,0-0.6-0.2-0.6-0.6V8.1H45c-0.3,0.5-0.4,1.2-0.4,1.7c0,3,2.4,5.4,5.4,5.4s5.4-2.4,5.4-5.4c0-0.5-0.1-1.3-0.4-1.7h2.2v8.3
			C57.2,16.7,56.8,17,56.5,17z"/>
	</g>
	<g>
		<path class="st0" d="M68.6,12.9c-0.5,2.5-1.1,5-2.8,6.3c-0.6-3.9,0.8-6.8,1.4-9.9c-1-1.8,0.1-5.4,2.4-4.5c2.7,1.1-2.4,6.7,1,7.3
			c3.6,0.8,5.1-6.3,2.8-8.6c-3.1-3.3-9.3,0-8.6,4.7c0.2,1.1,1.4,1.5,0.5,3.1c-2.1-0.5-2.7-2.2-2.6-4.3C62.8,3.5,65.9,1,69,0.7
			c4-0.5,7.6,1.4,8.1,5.1c0.6,4.1-1.8,8.7-5.9,8.3C70,14.1,69.6,13.5,68.6,12.9z"/>
	</g>
	<g>
		<path class="st0" d="M19.5,4.2c-0.7,0.3-1.5,0.5-2.2,0.6c0.8-0.5,1.4-1.3,1.7-2.2c-0.8,0.4-1.6,0.8-2.5,0.9
			c-0.7-0.8-1.7-1.2-2.9-1.2c-2.2,0-3.9,1.8-3.9,3.9c0,0.3,0,0.6,0.1,0.9c-3.2-0.1-6.1-1.6-8-4c-0.4,0.6-0.5,1.3-0.5,2
			C1.3,6.5,2,7.7,3,8.4C2.4,8.3,1.7,8.1,1.2,7.9l0,0c0,1.9,1.4,3.5,3.1,3.8c-0.3,0.1-0.7,0.1-1,0.1s-0.5,0-0.7-0.1
			c0.5,1.6,1.9,2.7,3.7,2.7c-1.3,1.1-3,1.7-4.9,1.7c-0.3,0-0.6,0-0.9-0.1c1.7,1.1,3.8,1.8,6,1.8c7.2,0,11.1-6,11.1-11.1
			c0-0.2,0-0.3,0-0.5C18.4,5.7,19,5,19.5,4.2"/>
	</g>
	<g>
		<path class="st0" d="M25.5,6.9h1.9V5c0-0.8,0-2.1,0.6-2.9s1.5-1.4,3-1.4c2.4,0,3.5,0.3,3.5,0.3L34,3.9c0,0-0.8-0.2-1.6-0.2
			c-0.8,0-1.4,0.3-1.4,1v2.2h3.1l-0.2,2.8H31v9.7h-3.6V9.6h-1.9V6.9z"/>
	</g>
	<g>
		<path class="st0" d="M56.7,1H43.2c-1.2,0-2.1,0.9-2.1,2.1v13.5c0,1.2,0.9,2.1,2.1,2.1h13.5c1.2,0,2.1-0.9,2.1-2.1V3.1
			C58.8,1.9,57.8,1,56.7,1z M54.3,3.2H56c0.3,0,0.6,0.2,0.6,0.6v1.7c0,0.3-0.2,0.6-0.6,0.6h-1.7c-0.3,0-0.6-0.2-0.6-0.6V3.7
			C53.8,3.4,54,3.2,54.3,3.2z M50,6.4c1.9,0,3.4,1.5,3.4,3.4s-1.5,3.4-3.4,3.4c-1.9,0-3.4-1.5-3.4-3.4S48,6.4,50,6.4z M56.5,17H43.3
			c-0.3,0-0.6-0.2-0.6-0.6V8.1H45c-0.3,0.5-0.4,1.2-0.4,1.7c0,3,2.4,5.4,5.4,5.4s5.4-2.4,5.4-5.4c0-0.5-0.1-1.3-0.4-1.7h2.2v8.3
			C57.2,16.7,56.8,17,56.5,17z"/>
	</g>
	<g>
		<path class="st0" d="M68.6,12.9c-0.5,2.5-1.1,5-2.8,6.3c-0.6-3.9,0.8-6.8,1.4-9.9c-1-1.8,0.1-5.4,2.4-4.5c2.7,1.1-2.4,6.7,1,7.3
			c3.6,0.8,5.1-6.3,2.8-8.6c-3.1-3.3-9.3,0-8.6,4.7c0.2,1.1,1.4,1.5,0.5,3.1c-2.1-0.5-2.7-2.2-2.6-4.3C62.8,3.5,65.9,1,69,0.7
			c4-0.5,7.6,1.4,8.1,5.1c0.6,4.1-1.8,8.7-5.9,8.3C70,14.1,69.6,13.5,68.6,12.9z"/>
	</g>
	<g>
		<path class="st1" d="M19.5,24.2c-0.7,0.3-1.5,0.5-2.2,0.6c0.8-0.5,1.4-1.3,1.7-2.2c-0.8,0.4-1.6,0.8-2.5,0.9
			c-0.7-0.8-1.7-1.2-2.9-1.2c-2.2,0-3.9,1.8-3.9,3.9c0,0.3,0,0.6,0.1,0.9c-3.2-0.1-6.1-1.6-8-4c-0.4,0.6-0.5,1.3-0.5,2
			c0,1.4,0.7,2.6,1.7,3.3c-0.6-0.1-1.3-0.3-1.8-0.5l0,0c0,1.9,1.4,3.5,3.1,3.8c-0.3,0.1-0.7,0.1-1,0.1s-0.5,0-0.7-0.1
			c0.5,1.6,1.9,2.7,3.7,2.7C5,35.5,3.3,36,1.4,36c-0.3,0-0.6,0-0.9-0.1c1.7,1.1,3.8,1.8,6,1.8c7.2,0,11.1-6,11.1-11.1
			c0-0.2,0-0.3,0-0.5C18.4,25.7,19,25,19.5,24.2"/>
	</g>
	<g>
		<path class="st1" d="M25.5,26.9h1.9V25c0-0.8,0-2.1,0.6-2.9c0.6-0.8,1.5-1.4,3-1.4c2.4,0,3.5,0.3,3.5,0.3L34,23.9
			c0,0-0.8-0.2-1.6-0.2c-0.8,0-1.4,0.3-1.4,1v2.2h3.1l-0.2,2.8H31v9.7h-3.6v-9.7h-1.9V26.9z"/>
	</g>
	<g>
		<path class="st1" d="M56.7,21H43.2c-1.2,0-2.1,0.9-2.1,2.1v13.5c0,1.2,0.9,2.1,2.1,2.1h13.5c1.2,0,2.1-0.9,2.1-2.1V23.1
			C58.8,21.9,57.8,21,56.7,21z M54.3,23.2H56c0.3,0,0.6,0.2,0.6,0.6v1.7c0,0.3-0.2,0.6-0.6,0.6h-1.7c-0.3,0-0.6-0.2-0.6-0.6v-1.8
			C53.8,23.4,54,23.2,54.3,23.2z M50,26.4c1.9,0,3.4,1.5,3.4,3.4s-1.5,3.4-3.4,3.4c-1.9,0-3.4-1.5-3.4-3.4S48,26.4,50,26.4z
			 M56.5,37H43.3c-0.3,0-0.6-0.2-0.6-0.6v-8.3H45c-0.3,0.5-0.4,1.2-0.4,1.7c0,3,2.4,5.4,5.4,5.4s5.4-2.4,5.4-5.4
			c0-0.5-0.1-1.3-0.4-1.7h2.2v8.3C57.2,36.7,56.8,37,56.5,37z"/>
	</g>
	<g>
		<path class="st1" d="M68.6,32.9c-0.5,2.5-1.1,5-2.8,6.3c-0.6-3.9,0.8-6.8,1.4-9.9c-1-1.8,0.1-5.4,2.4-4.5c2.7,1.1-2.4,6.7,1,7.3
			c3.6,0.8,5.1-6.3,2.8-8.6c-3.1-3.3-9.3,0-8.6,4.7c0.2,1.1,1.4,1.5,0.5,3.1c-2.1-0.5-2.7-2.2-2.6-4.3c0.1-3.6,3.2-6.1,6.3-6.4
			c4-0.5,7.6,1.4,8.1,5.1c0.6,4.1-1.8,8.7-5.9,8.3C70,34.1,69.6,33.5,68.6,32.9z"/>
	</g>
	<g>
		<path class="st1" d="M19.5,24.2c-0.7,0.3-1.5,0.5-2.2,0.6c0.8-0.5,1.4-1.3,1.7-2.2c-0.8,0.4-1.6,0.8-2.5,0.9
			c-0.7-0.8-1.7-1.2-2.9-1.2c-2.2,0-3.9,1.8-3.9,3.9c0,0.3,0,0.6,0.1,0.9c-3.2-0.1-6.1-1.6-8-4c-0.4,0.6-0.5,1.3-0.5,2
			c0,1.4,0.7,2.6,1.7,3.3c-0.6-0.1-1.3-0.3-1.8-0.5l0,0c0,1.9,1.4,3.5,3.1,3.8c-0.3,0.1-0.7,0.1-1,0.1s-0.5,0-0.7-0.1
			c0.5,1.6,1.9,2.7,3.7,2.7C5,35.5,3.3,36,1.4,36c-0.3,0-0.6,0-0.9-0.1c1.7,1.1,3.8,1.8,6,1.8c7.2,0,11.1-6,11.1-11.1
			c0-0.2,0-0.3,0-0.5C18.4,25.7,19,25,19.5,24.2"/>
	</g>
	<g>
		<path class="st1" d="M25.5,26.9h1.9V25c0-0.8,0-2.1,0.6-2.9c0.6-0.8,1.5-1.4,3-1.4c2.4,0,3.5,0.3,3.5,0.3L34,23.9
			c0,0-0.8-0.2-1.6-0.2c-0.8,0-1.4,0.3-1.4,1v2.2h3.1l-0.2,2.8H31v9.7h-3.6v-9.7h-1.9V26.9z"/>
	</g>
	<g>
		<path class="st1" d="M56.7,21H43.2c-1.2,0-2.1,0.9-2.1,2.1v13.5c0,1.2,0.9,2.1,2.1,2.1h13.5c1.2,0,2.1-0.9,2.1-2.1V23.1
			C58.8,21.9,57.8,21,56.7,21z M54.3,23.2H56c0.3,0,0.6,0.2,0.6,0.6v1.7c0,0.3-0.2,0.6-0.6,0.6h-1.7c-0.3,0-0.6-0.2-0.6-0.6v-1.8
			C53.8,23.4,54,23.2,54.3,23.2z M50,26.4c1.9,0,3.4,1.5,3.4,3.4s-1.5,3.4-3.4,3.4c-1.9,0-3.4-1.5-3.4-3.4S48,26.4,50,26.4z
			 M56.5,37H43.3c-0.3,0-0.6-0.2-0.6-0.6v-8.3H45c-0.3,0.5-0.4,1.2-0.4,1.7c0,3,2.4,5.4,5.4,5.4s5.4-2.4,5.4-5.4
			c0-0.5-0.1-1.3-0.4-1.7h2.2v8.3C57.2,36.7,56.8,37,56.5,37z"/>
	</g>
	<g>
		<path class="st1" d="M68.6,32.9c-0.5,2.5-1.1,5-2.8,6.3c-0.6-3.9,0.8-6.8,1.4-9.9c-1-1.8,0.1-5.4,2.4-4.5c2.7,1.1-2.4,6.7,1,7.3
			c3.6,0.8,5.1-6.3,2.8-8.6c-3.1-3.3-9.3,0-8.6,4.7c0.2,1.1,1.4,1.5,0.5,3.1c-2.1-0.5-2.7-2.2-2.6-4.3c0.1-3.6,3.2-6.1,6.3-6.4
			c4-0.5,7.6,1.4,8.1,5.1c0.6,4.1-1.8,8.7-5.9,8.3C70,34.1,69.6,33.5,68.6,32.9z"/>
	</g>
</g>
<g id="Layer_2">
</g>
</svg>
