<?xml version="1.0" encoding="utf-8"?>
<!-- Generator: Adobe Illustrator 19.0.1, SVG Export Plug-In . SVG Version: 6.00 Build 0)  -->
<svg version="1.1" id="Слой_1" xmlns="http://www.w3.org/2000/svg" xmlns:xlink="http://www.w3.org/1999/xlink" x="0px" y="0px"
	 viewBox="0 0 30 30" style="enable-background:new 0 0 30 30;" xml:space="preserve">
<style type="text/css">
	.st0{fill:#40ba94;}
</style>
<path class="st0" d="M16.7,2c-0.3,0-0.6,0-0.9,0.1c-1.1,0.4-1.7,1.6-1.3,2.7l0.9,2.7l-5.1,1.7L9.4,6.7C9,5.5,7.8,4.9,6.7,5.3
	C5.5,5.7,4.9,6.9,5.3,8l0.8,2.5l-2.7,0.9c-1.1,0.4-1.7,1.6-1.3,2.8s1.6,1.7,2.7,1.3l2.7-0.9l1.7,5.1l-2.6,0.8
	c-1.1,0.4-1.7,1.6-1.3,2.7c0.4,1.1,1.6,1.8,2.7,1.4l2.5-0.8l0.9,2.7c0.4,1.1,1.6,1.7,2.8,1.3s1.7-1.6,1.3-2.7l-0.9-2.7l5.1-1.7
	l0.8,2.6c0.4,1.1,1.6,1.7,2.7,1.3c1.1-0.4,1.8-1.6,1.4-2.7l-0.8-2.5l2.7-0.9c1.1-0.4,1.7-1.6,1.3-2.8s-1.6-1.7-2.7-1.3l-2.7,0.9
	l-1.7-5.1l2.6-0.8c1.1-0.4,1.7-1.6,1.3-2.7S23.1,4.9,22,5.3l-2.5,0.8l-0.9-2.7C18.2,2.6,17.5,2.1,16.7,2z M16.7,11.6l1.7,5.1
	l-5.1,1.7l-1.7-5.1L16.7,11.6z"/>
</svg>
