<?xml version="1.0" encoding="utf-8"?>
<!-- Generator: Adobe Illustrator 19.0.1, SVG Export Plug-In . SVG Version: 6.00 Build 0)  -->
<svg version="1.1" id="Layer_1" xmlns="http://www.w3.org/2000/svg" xmlns:xlink="http://www.w3.org/1999/xlink" x="0px" y="0px"
	 width="52px" viewBox="-232.6 367.7 52.1 58.3" style="enable-background:new -232.6 367.7 52.1 58.3;" xml:space="preserve">
<style type="text/css">
	.st0{clip-path:url(#SVGID_2_);}
	.st1{fill:none;stroke:#535253;stroke-width:3;stroke-miterlimit:10;}
	.st2{fill:none;stroke:#BCBEC0;stroke-width:3;stroke-linecap:round;stroke-linejoin:round;stroke-miterlimit:10;}
	.st3{fill:#40BA94;}
</style>
<g>
	<g>
		<defs>
			<rect id="SVGID_1_" x="-550.1" y="633.5" width="1399.8" height="249.9"/>
		</defs>
		<clipPath id="SVGID_2_">
			<use xlink:href="#SVGID_1_"  style="overflow:visible;"/>
		</clipPath>
		<g transform="matrix(1 0 0 1 0 0)" class="st0">
		</g>
	</g>
</g>
<g>
	<ellipse class="st1" cx="-206.6" cy="396.9" rx="23.4" ry="25.8"/>
	<path class="st2" d="M-214.2,414.3c-5.6-3.2-9.4-9.8-9.4-17.4c0-7.6,3.8-14.2,9.4-17.4"/>
	<path class="st2" d="M-199.2,379.4c5.6,3.2,9.4,9.8,9.4,17.4c0,7.6-3.8,14.2-9.4,17.4"/>
	<g>
		<path class="st3" d="M-207.7,406.6v-1.7c-2-0.3-3.9-1.2-5.6-2.7l2.2-2.7c1.2,1.1,2.4,1.8,3.3,2.1v-3.5c-1.7-0.4-2.9-1-3.7-1.7
			c-0.8-0.7-1.2-1.8-1.2-3.1c0-1.4,0.4-2.5,1.3-3.3c0.9-0.9,2-1.4,3.5-1.6v-1.2h2.5v1.2c1.6,0.2,3.2,0.9,4.7,2l-1.9,2.8
			c-1-0.7-1.9-1.2-2.8-1.4v3.4c1.7,0.4,3,1,3.8,1.8c0.8,0.7,1.2,1.8,1.2,3.2s-0.5,2.5-1.4,3.4c-0.9,0.9-2.1,1.4-3.6,1.6v1.7h-2.3
			V406.6z M-207.7,391.6c-0.7,0.2-1,0.7-1,1.3c0,0.6,0.3,1.1,1,1.4V391.6z M-204,400.2c0-0.3-0.1-0.6-0.3-0.8
			c-0.2-0.2-0.5-0.4-0.9-0.6v2.9C-204.4,401.4-204,400.9-204,400.2z"/>
	</g>
</g>
</svg>
