<?xml version="1.0" encoding="utf-8"?>
<!-- Generator: Adobe Illustrator 19.0.1, SVG Export Plug-In . SVG Version: 6.00 Build 0)  -->
<svg version="1.1" id="Layer_1" xmlns="http://www.w3.org/2000/svg" xmlns:xlink="http://www.w3.org/1999/xlink" x="0px" y="0px"
	 width="74px" viewBox="-242.6 366.5 72 60.7" style="enable-background:new -242.6 366.5 72 60.7;" xml:space="preserve">
<style type="text/css">
	.st0{clip-path:url(#SVGID_2_);}
	.st1{fill:#535253;}
	.st2{fill:#40BA94;}
</style>
<g>
	<g>
		<defs>
			<rect id="SVGID_1_" x="-256" y="633.5" width="1399.8" height="249.9"/>
		</defs>
		<clipPath id="SVGID_2_">
			<use xlink:href="#SVGID_1_"  style="overflow:visible;"/>
		</clipPath>
		<g transform="matrix(1 0 0 1 0 0)" class="st0">
		</g>
	</g>
</g>
<g>
	<path class="st1" d="M-172,376.5c-1-1.5-2.7-2-3.1-2l-23-6.7c-0.4-0.1-0.8,0-1.1,0.2s-0.5,0.6-0.5,1c0.1,4.6-5.6,4.9-6.7,4.9h-0.3
		c-0.5,0-2.3,0-3.9-0.7c-1.9-0.8-2.8-2.1-2.9-4c0-0.4-0.2-0.8-0.5-1c-0.3-0.2-0.7-0.3-1.1-0.2l-22.8,7.3c-0.4,0.1-2.2,0.6-3.1,2.1
		c-0.7,1.1-0.8,2.4-0.3,4c1.1,3.5,2.8,9.4,3.1,10.3c0.2,1.1,1,2.8,3.3,2.8c0,0,0,0,0.1,0s0.3,0,0.4,0c1.6-0.2,5.7-0.6,7.7-0.9
		l0.4,28.4c0.1,1.4,1,4.1,3.7,4.1c0,0,0,0,0.1,0l33.4-0.4c2.8,0,3.6-2.8,3.6-4.3l-0.4-28.4c2.4,0.2,6.2,0.5,7.7,0.7
		c0.1,0,0.3,0,0.4,0c2.3,0,3.2-1.8,3.3-2.9c0.2-0.7,1.8-6.8,2.8-10.4C-171.2,378.9-171.3,377.6-172,376.5z M-177.9,391.1
		c-2-0.1-7.9-0.7-9.1-0.8c-0.4,0-0.7,0.1-1,0.3s-0.4,0.6-0.4,1l0.4,29.7c0,0.1-0.1,1.8-1.1,1.8l-33.7,0.4c-1,0-1.1-1.6-1.1-1.7
		l-0.5-29.7c0-0.4-0.2-0.7-0.4-0.9c-0.3-0.2-0.6-0.4-1-0.3c-0.1,0-6.9,0.8-9.1,1c-0.1,0-0.1,0-0.2,0c-0.6,0-0.8-0.4-0.8-0.7
		c0-0.1,0-0.2,0-0.2c0-0.1-2-6.6-3.1-10.4c-0.2-0.8-0.2-1.4,0.1-1.9c0.4-0.8,1.5-1,1.5-1c0.1,0,0.1,0,0.2,0l21.4-6.9
		c0.5,2.1,2,3.7,4.3,4.7c2.3,0.9,4.8,0.9,5.1,0.9h0.2c3.8,0,8.2-1.6,9-5.8l21.6,6.3h0.1c0,0,1.1,0.2,1.5,0.9
		c0.3,0.5,0.3,1.1,0.1,1.9c-1,3.6-2.7,9.8-2.8,10.5c0,0.1,0,0.1,0,0.2c0,0.3-0.2,0.7-0.8,0.7C-177.8,391.1-177.9,391.1-177.9,391.1z
		"/>
	<path class="st2" d="M-196.8,416c-0.5,0-1-0.4-1-1s0.4-1,1-1h3.3l0,0c0.5,0,1,0.4,1,1c0,0.5-0.4,1-1,1v-1v1H-196.8z M-200.1,416.1
		h-3.3c-0.5,0-1-0.4-1-1s0.4-1,1-1h3.3c0.5,0,1,0.4,1,1C-199.1,415.6-199.5,416.1-200.1,416.1z M-206.7,416.2h-3.3c-0.5,0-1-0.4-1-1
		c0-0.5,0.4-1,1-1h3.3c0.5,0,1,0.4,1,1C-205.7,415.7-206.1,416.2-206.7,416.2z M-213.3,416.2h-3.3c-0.5,0-1-0.4-1-1c0-0.5,0.4-1,1-1
		h3.3c0.5,0,1,0.4,1,1C-212.3,415.8-212.8,416.2-213.3,416.2z M-219.2,415.4c-0.5,0-1-0.4-1-1v-3.3c0-0.5,0.4-1,1-1c0.6,0,1,0.4,1,1
		v3.3C-218.2,415-218.7,415.4-219.2,415.4z M-193,413c-0.5,0-1-0.4-1-1v-3.3c0-0.5,0.4-1,1-1c0.5,0,1,0.4,1,1v3.3
		C-192.1,412.5-192.5,412.9-193,413z M-219.3,408.8c-0.5,0-1-0.4-1-1v-3.3c0-0.5,0.4-1,1-1c0.5,0,1,0.4,1,1v3.3
		C-218.3,408.3-218.7,408.8-219.3,408.8z M-193.1,406.3c-0.5,0-1-0.4-1-1V402c0-0.5,0.4-1,1-1c0.5,0,1,0.4,1,1v3.3
		C-192.1,405.9-192.6,406.3-193.1,406.3z M-219.4,402.2c-0.5,0-1-0.4-1-1v-3.3c0-0.5,0.4-1,1-1c0.5,0,1,0.4,1,1v3.3
		C-218.4,401.7-218.8,402.2-219.4,402.2z M-193.2,399.7c-0.5,0-1-0.4-1-1v-3.3c0-0.5,0.4-1,1-1c0.5,0,1,0.4,1,1v3.3
		C-192.2,399.3-192.7,399.7-193.2,399.7z M-219.5,395.6c-0.5,0-1-0.4-1-1v-3.3c0-0.5,0.4-1,1-1c0.5,0,1,0.4,1,1v3.3
		C-218.5,395.1-218.9,395.6-219.5,395.6z M-193.3,393.1c-0.5,0-1-0.4-1-1v-3.3c0-0.5,0.4-1,1-1s1,0.4,1,1v3.3
		C-192.3,392.7-192.7,393.1-193.3,393.1z M-219.5,389c-0.5,0-1-0.4-1-1v-3.3c0-0.5,0.4-1,1-1c0.5,0,1,0.4,1,1v3.3
		C-218.6,388.5-219,389-219.5,389z M-193.4,386.5c-0.5,0-1-0.4-1-1v-3.3c0-0.5,0.4-1,1-1c0.5,0,1,0.4,1,1v3.3
		C-192.4,386.1-192.8,386.5-193.4,386.5z M-196,382.3h-3.3c-0.5,0-1-0.4-1-1c0-0.6,0.4-1,1-1h3.3c0.5,0,1,0.4,1,1
		C-195,381.9-195.5,382.3-196,382.3z M-202.6,382.4h-3.3c-0.5,0-1-0.4-1-1c0-0.5,0.4-1,1-1h3.3c0.5,0,1,0.4,1,1
		C-201.6,382-202.1,382.4-202.6,382.4z M-209.2,382.5h-3.3c-0.5,0-1-0.4-1-1c0-0.5,0.4-1,1-1h3.3c0.5,0,1,0.4,1,1
		C-208.3,382.1-208.7,382.5-209.2,382.5z M-215.8,382.6h-3.3c-0.5,0-1-0.4-1-1c0-0.5,0.4-1,1-1h3.3c0.5,0,1,0.4,1,1
		C-214.9,382.1-215.3,382.6-215.8,382.6z"/>
	<path class="st2" d="M-206.2,404c-0.5,0-1-0.4-1-1l-0.1-9.4c0-0.5,0.4-1,1-1s1,0.4,1,1l0.1,9.4C-205.3,403.5-205.7,403.9-206.2,404
		z"/>
	<path class="st2" d="M-201.6,399.2l-9.4,0.1c-0.5,0-1-0.4-1-1c0-0.5,0.4-1,1-1l9.4-0.1c0.5,0,1,0.4,1,1
		C-200.6,398.8-201,399.2-201.6,399.2z"/>
</g>
</svg>
