<?xml version="1.0" encoding="utf-8"?>
<!-- Generator: Adobe Illustrator 19.0.1, SVG Export Plug-In . SVG Version: 6.00 Build 0)  -->
<svg version="1.1" id="Layer_1" xmlns="http://www.w3.org/2000/svg" xmlns:xlink="http://www.w3.org/1999/xlink" x="0px" y="0px"
	 width="98px" viewBox="-255.6 364.5 98 64.8" style="enable-background:new -255.6 364.5 98 64.8;" xml:space="preserve">
<style type="text/css">
	.st0{clip-path:url(#SVGID_2_);}
	.st1{fill:#535253;}
	.st2{fill:#40BA94;}
</style>
<g>
	<g>
		<defs>
			<rect id="SVGID_1_" x="-400.2" y="633.5" width="1399.8" height="249.9"/>
		</defs>
		<clipPath id="SVGID_2_">
			<use xlink:href="#SVGID_1_"  style="overflow:visible;"/>
		</clipPath>
		<g transform="matrix(1 0 0 1 0 0)" class="st0">
		</g>
	</g>
</g>
<g>
	<g>
		<path class="st1" d="M-181.3,373.1l-2.7-3.3c-0.2-0.3-0.6-0.4-1-0.3l-2.5,0.6c-0.4,0.1-0.6,0.4-0.7,0.7l-0.8,3.4
			c0,0.1-0.1,0.3-0.2,0.3l-4.5,3c-0.4,0.3-0.6,0.9-0.3,1.3c0.3,0.4,0.9,0.6,1.3,0.3l5-3.4c0.2-0.1,0.3-0.3,0.4-0.6l0.7-3.1
			c0-0.2,0.2-0.3,0.4-0.4l0.8-0.2c0.2,0,0.4,0,0.5,0.2l1.4,1.7c0.1,0.2,0.1,0.4,0,0.6l-2.2,2.4c-0.2,0.2-0.3,0.5-0.2,0.8l0.2,1.2
			c0,0.2,0,0.3-0.1,0.4l-3.6,3.9c-0.2,0.2-0.3,0.5-0.2,0.8l0.6,3.9c0,0.2,0,0.4-0.2,0.6l-3.5,4.7c-0.2,0.2-0.2,0.5-0.2,0.7l0.5,3
			c0,0.2,0.1,0.3,0.2,0.4l1.7,2.3c0.1,0.1,0.1,0.2,0.1,0.2l0.1,1.2c0,0.2-0.2,0.4-0.4,0.4h-0.8c-0.1,0-0.2,0-0.3-0.1l-2.2-2.1
			c-0.1-0.1-0.2-0.2-0.2-0.4l-0.1-1.4c0-0.5-0.4-0.8-0.9-0.9l-6.1-0.5c-0.3,0-0.7,0.1-0.9,0.4c-0.1,0.2-0.2,0.4-0.2,0.7v0.4
			c0,0.2-0.1,0.3-0.3,0.3l-3-0.6c-0.2-0.1-0.5,0-0.7,0.1l-3.1,1.9c-0.2,0.1-0.4,0.3-0.4,0.6l-0.4,1.3c-0.1,0.2-0.4,0.3-0.5,0.1
			l-2.7-3.9c-0.3-0.4-0.7-0.5-1.1-0.3l-1.2,0.5c-0.2,0.1-0.4,0-0.6-0.2l-2-2.5c-0.2-0.2-0.5-0.3-0.7-0.3h-4.3c-0.1,0-0.1,0-0.2,0
			l-3-1.4c-0.1-0.1-0.2-0.2-0.3-0.3l-4.2-11.2c-0.1-0.2-0.1-0.3,0-0.5l2.9-7.8c0.1-0.2,0.2-0.3,0.4-0.3h3.6c0.5,0,1-0.4,1-0.9
			s-0.4-1-1-1h-4.6c-0.4,0-0.8,0.2-0.9,0.6l-3.4,9.3c-0.1,0.2-0.1,0.5,0,0.7l4.6,12.3c0.1,0.2,0.3,0.4,0.5,0.5l3.9,1.8
			c0.1,0.1,0.3,0.1,0.4,0.1h3.9c0.1,0,0.3,0.1,0.4,0.2l2.3,2.8c0.3,0.3,0.7,0.4,1.1,0.3l1.2-0.5c0.2-0.1,0.4,0,0.5,0.1l3.7,5.2
			c0.2,0.3,0.5,0.4,0.8,0.4c0.2,0,0.3,0,0.5-0.1c0.2-0.1,0.4-0.4,0.5-0.6l0.8-3.2c0.1-0.2,0.2-0.4,0.4-0.6l1.9-1.1
			c0.2-0.1,0.3-0.1,0.5-0.1l4.3,0.9c0.4,0.1,0.8-0.1,1-0.5c0.1-0.2,0.1-0.4,0.1-0.6v-0.5c0-0.2,0.2-0.4,0.4-0.4l3.4,0.3
			c0.2,0,0.4,0.2,0.4,0.4l0.1,0.8c0,0.2,0.1,0.5,0.3,0.6l3,2.9c0.2,0.2,0.4,0.3,0.6,0.3l2.7,0.1c0.3,0,0.6-0.1,0.7-0.3
			c0.2-0.2,0.2-0.5,0.2-0.7l-0.3-3c0-0.2-0.1-0.4-0.2-0.5l-1.7-2.3c-0.1-0.1-0.1-0.2-0.2-0.4l-0.3-1.9c0-0.2,0-0.4,0.1-0.5l3.5-4.8
			c0.1-0.2,0.2-0.5,0.2-0.7l-0.6-4c0-0.2,0-0.3,0.1-0.5l3.4-3.8c0.2-0.2,0.3-0.5,0.2-0.8l-0.2-1.1c0-0.2,0-0.4,0.2-0.5l2.5-2.8
			C-181,374-181,373.4-181.3,373.1z"/>
		<path class="st1" d="M-209.1,390.3l0.3,0.2c0.2,0.1,0.4,0.2,0.5,0.2c0.2,0,0.4-0.1,0.5-0.2l0.3-0.2c3-2.1,12.7-9.5,12.7-17.3
			c0-3.8-3.1-6.9-6.9-6.9c-3.1,0-5.3,2.2-6.6,4.2c-1.3-2-3.6-4.2-6.6-4.2c-3.8,0-6.9,3.1-6.9,6.9
			C-221.8,380.8-212.1,388.2-209.1,390.3z M-214.9,368c3,0,5.1,3.2,5.8,4.6c0.2,0.3,0.5,0.5,0.8,0.5s0.7-0.2,0.8-0.5
			c0.8-1.4,2.8-4.6,5.8-4.6c2.8,0,5,2.3,5,5c0,1.7-0.8,7.9-11.7,15.6c-10.8-7.6-11.7-13.8-11.7-15.6
			C-219.9,370.2-217.7,368-214.9,368z"/>
	</g>
	<path class="st2" d="M-200.8,419.3c0.2,0.1,0.3,0.1,0.4,0.2c0.6,0.5,0.6,1.3,0.2,1.9l-4.8,5.7c-0.2,0.3-0.6,0.5-1,0.5
		c-0.4,0-0.7-0.1-1-0.4l-4.8-5.5c-0.5-0.5-0.5-1.4,0-1.9s1.4-0.5,1.9,0l3.8,4.5l3.9-4.6C-201.9,419.3-201.3,419.2-200.8,419.3z"/>
	<path class="st2" d="M-206.1,427.2c-0.7,0-1.3-0.6-1.3-1.3v-15.5c0-0.7,0.6-1.3,1.3-1.3c0.7,0,1.3,0.6,1.3,1.3v15.4
		C-204.8,426.6-205.4,427.2-206.1,427.2z"/>
	<path class="st2" d="M-167.8,373.8c0.1-0.2,0.1-0.3,0.2-0.4c0.5-0.6,1.3-0.6,1.9-0.2l5.7,4.8c0.3,0.2,0.5,0.6,0.5,1
		c0,0.4-0.1,0.7-0.4,1l-5.4,4.8c-0.5,0.5-1.4,0.5-1.9,0s-0.5-1.4,0-1.9l4.5-3.8l-4.6-3.9C-167.8,374.8-168,374.3-167.8,373.8z"/>
	<path class="st2" d="M-161.3,380.4h-15.4c-0.7,0-1.3-0.6-1.3-1.3c0-0.7,0.6-1.3,1.3-1.3h15.4c0.7,0,1.3,0.6,1.3,1.3
		C-159.9,379.8-160.5,380.4-161.3,380.4z"/>
	<path class="st2" d="M-245.3,384.3c-0.1,0.2-0.1,0.3-0.2,0.4c-0.5,0.6-1.3,0.6-1.9,0.2l-5.7-4.8c-0.3-0.2-0.5-0.6-0.5-1
		c0-0.4,0.1-0.7,0.4-1l5.5-4.8c0.5-0.5,1.4-0.5,1.9,0s0.5,1.4,0,1.9l-4.5,3.7l4.6,3.9C-245.3,383.2-245.1,383.7-245.3,384.3z"/>
	<path class="st2" d="M-236.4,380.3h-15.4c-0.7,0-1.3-0.6-1.3-1.3c0-0.7,0.5-1.4,1.3-1.4h15.4c0.7,0,1.3,0.6,1.3,1.3
		C-235.1,379.6-235.7,380.3-236.4,380.3z"/>
	<path class="st2" d="M-230.2,410.1c0.1,0.1,0.1,0.3,0.1,0.5c0.1,0.7-0.5,1.4-1.2,1.5l-7.4,0.6c-0.4,0-0.7-0.1-1-0.3
		c-0.3-0.3-0.4-0.6-0.4-1l0.5-7.3c0-0.7,0.6-1.3,1.3-1.4c0.7,0,1.3,0.6,1.4,1.3l-0.5,5.8l6-0.5C-231,409.3-230.5,409.6-230.2,410.1z
		"/>
	<path class="st2" d="M-238.6,412.3c-0.3,0-0.7-0.1-0.9-0.4c-0.5-0.5-0.5-1.4,0-1.9l10.9-10.9c0.5-0.5,1.4-0.5,1.9,0s0.5,1.4,0,1.9
		l-10.9,10.9C-237.9,412.2-238.2,412.3-238.6,412.3z"/>
	<path class="st2" d="M-175.4,402.7c0.1-0.1,0.3-0.1,0.5-0.1c0.7-0.1,1.4,0.5,1.5,1.2l0.6,7.4c0,0.4-0.1,0.7-0.3,1
		c-0.3,0.3-0.6,0.4-1,0.4l-7.3-0.5c-0.7,0-1.3-0.6-1.4-1.3c-0.1-0.7,0.6-1.3,1.3-1.4l5.8,0.5l-0.5-6
		C-176.2,403.4-175.9,402.9-175.4,402.7z"/>
	<path class="st2" d="M-174.6,412.4c-0.3,0-0.7-0.1-0.9-0.4l-10.9-10.9c-0.5-0.5-0.5-1.4,0-1.9s1.4-0.5,1.9,0l10.9,10.9
		c0.5,0.5,0.5,1.4,0,1.9C-173.9,412.2-174.2,412.4-174.6,412.4z"/>
</g>
</svg>
